<?xml version="1.0" standalone="no"?>
<!DOCTYPE svg PUBLIC "-//W3C//DTD SVG 20010904//EN"
 "http://www.w3.org/TR/2001/REC-SVG-20010904/DTD/svg10.dtd">
<svg version="1.0" xmlns="http://www.w3.org/2000/svg"
 width="512.000000pt" height="512.000000pt" viewBox="0 0 512.000000 512.000000"
 preserveAspectRatio="xMidYMid meet">
<metadata>
Created by potrace 1.14, written by Peter Selinger 2001-2017
</metadata>
<g transform="translate(0.000000,512.000000) scale(0.100000,-0.100000)"
fill="#000000" stroke="none">
<path d="M3340 4711 c-105 -28 -206 -87 -286 -166 -63 -63 -73 -70 -90 -59
-10 7 -66 28 -124 48 -356 120 -738 60 -1037 -163 -160 -120 -302 -306 -369
-486 -21 -56 -32 -90 -40 -120 -4 -16 -8 -34 -10 -40 -45 -181 -29 -430 41
-624 47 -130 99 -218 201 -342 l63 -75 -176 -205 c-96 -112 -193 -226 -216
-253 -55 -64 -242 -283 -276 -321 -14 -17 -51 -59 -81 -95 -30 -36 -67 -78
-81 -95 -51 -58 -114 -132 -138 -161 -28 -33 -144 -167 -151 -174 -3 -3 -30
-34 -60 -70 -30 -36 -67 -78 -81 -95 -15 -16 -117 -136 -228 -265 -209 -245
-223 -267 -183 -303 41 -37 56 -28 403 269 381 326 339 291 729 624 162 139
306 262 320 274 302 260 581 496 589 496 5 0 179 -169 386 -376 324 -324 374
-378 363 -392 -7 -8 -26 -30 -43 -47 -165 -174 -289 -356 -326 -475 -26 -86
-28 -131 -13 -214 46 -242 256 -414 506 -414 279 -1 500 214 513 498 6 146
-125 372 -357 615 l-48 50 49 50 c139 143 195 273 187 435 -5 95 -19 148 -63
232 -42 80 -184 231 -227 242 -43 11 -80 -20 -84 -69 -3 -36 2 -43 71 -114 89
-91 109 -120 132 -186 33 -100 26 -207 -21 -300 -24 -48 -134 -175 -151 -175
-5 0 -176 168 -382 374 l-374 374 39 34 c90 80 464 397 519 439 123 95 255
178 475 302 164 91 332 197 466 292 l107 77 28 -30 c108 -116 249 -182 399
-187 126 -4 216 21 328 92 73 46 569 541 578 577 13 52 -36 101 -87 89 -13 -3
-146 -126 -294 -274 -222 -220 -281 -273 -326 -294 -169 -77 -360 -38 -489
100 l-25 27 27 23 c41 35 113 146 138 212 134 353 -57 725 -422 820 -57 15
-234 11 -298 -6z m-730 -276 c75 -11 172 -37 229 -62 50 -21 53 -25 39 -41
-56 -64 -215 -319 -343 -547 -116 -207 -233 -381 -354 -525 -78 -92 -362 -424
-378 -440 -12 -13 -19 -9 -59 35 -182 200 -269 516 -219 795 92 509 573 857
1085 785z m997 -151 c43 -32 65 -69 70 -117 7 -62 -10 -106 -62 -157 l-45 -45
-117 118 -117 117 38 39 c22 22 53 47 70 56 41 21 128 15 163 -11z m-259 -310
l116 -117 -55 -52 c-45 -43 -64 -55 -101 -60 -82 -12 -152 27 -184 103 -18 44
-18 74 1 120 14 31 90 122 103 122 3 0 57 -52 120 -116z m-239 -2726 c190
-233 224 -362 137 -524 -55 -105 -192 -184 -317 -184 -55 0 -159 32 -204 64
-111 77 -176 226 -150 342 23 104 143 280 307 452 l50 52 49 -52 c28 -29 85
-96 128 -150z"/>
</g>
</svg>
